<svg width="22" height="20" viewBox="0 0 22 20" fill="none" xmlns="http://www.w3.org/2000/svg">
<path opacity="0.5" d="M3.4383 15.8273V5.81307C3.4383 4.92785 3.80043 4.07888 4.44503 3.45294C5.08963 2.827 5.9639 2.47534 6.8755 2.47534H4.29706C3.84568 2.47534 3.39872 2.56168 2.9817 2.72941C2.56468 2.89715 2.18577 3.143 1.86659 3.45294C1.54742 3.76288 1.29424 4.13082 1.1215 4.53577C0.948769 4.94072 0.859863 5.37475 0.859863 5.81307V15.8273C0.859863 16.2656 0.948769 16.6996 1.1215 17.1046C1.29424 17.5095 1.54742 17.8775 1.86659 18.1874C2.18577 18.4973 2.56468 18.7432 2.9817 18.9109C3.39872 19.0787 3.84568 19.165 4.29706 19.165H6.8755C5.9639 19.165 5.08963 18.8133 4.44503 18.1874C3.80043 17.5615 3.4383 16.7125 3.4383 15.8273Z" fill="#8C97AB"/>
<path d="M17.703 1.64031H16.8431V0.805353C16.8352 0.589171 16.7412 0.384401 16.5809 0.234177C16.4207 0.0839527 16.2066 0 15.9838 0C15.7611 0 15.547 0.0839527 15.3867 0.234177C15.2264 0.384401 15.1324 0.589171 15.1245 0.805353V1.64031H6.87547V0.805353C6.86757 0.589171 6.77358 0.384401 6.6133 0.234177C6.45301 0.0839527 6.23894 0 6.01617 0C5.79341 0 5.57934 0.0839527 5.41905 0.234177C5.25877 0.384401 5.16477 0.589171 5.15688 0.805353V1.64031H4.29704C3.15774 1.64143 2.06544 2.08141 1.25984 2.8637C0.454235 3.64599 0.00114531 4.70669 0 5.81302V15.8304C0.00200373 16.9362 0.455472 17.9961 1.26098 18.7777C2.06649 19.5593 3.1583 19.9989 4.29704 20H17.7084C18.8462 19.9975 19.9366 19.5573 20.7409 18.7759C21.5453 17.9944 21.998 16.9353 22 15.8304V5.81302C21.9989 4.70669 21.5458 3.64599 20.7402 2.8637C19.9346 2.08141 18.8423 1.64143 17.703 1.64031ZM20.2814 15.8304C20.2808 16.4943 20.009 17.1309 19.5256 17.6003C19.0421 18.0697 18.3866 18.3337 17.703 18.3343H4.29704C3.61337 18.3337 2.95786 18.0697 2.47444 17.6003C1.99101 17.1309 1.71917 16.4943 1.7186 15.8304V5.81302C1.71917 5.14913 1.99101 4.51259 2.47444 4.04315C2.95786 3.57372 3.61337 3.30974 4.29704 3.30918H17.7084C18.392 3.30974 19.0475 3.57372 19.531 4.04315C20.0144 4.51259 20.2862 5.14913 20.2868 5.81302L20.2814 15.8304Z" fill="#8C97AB"/>
<path d="M11.8589 8.31694H10.1403C10.0249 8.32091 9.90988 8.30227 9.80205 8.26213C9.69422 8.22199 9.59583 8.16116 9.51273 8.08329C9.42964 8.00541 9.36354 7.91209 9.31841 7.80887C9.27327 7.70565 9.25 7.59465 9.25 7.48251C9.25 7.37038 9.27327 7.25939 9.31841 7.15617C9.36354 7.05296 9.42964 6.95963 9.51273 6.88176C9.59583 6.80388 9.69422 6.74306 9.80205 6.70291C9.90988 6.66277 10.0249 6.64413 10.1403 6.64811H11.8589C11.9743 6.64413 12.0894 6.66277 12.1972 6.70291C12.305 6.74306 12.4034 6.80388 12.4865 6.88176C12.5696 6.95963 12.6357 7.05296 12.6809 7.15617C12.726 7.25939 12.7493 7.37038 12.7493 7.48251C12.7493 7.59465 12.726 7.70565 12.6809 7.80887C12.6357 7.91209 12.5696 8.00541 12.4865 8.08329C12.4034 8.16116 12.305 8.22199 12.1972 8.26213C12.0894 8.30227 11.9743 8.32091 11.8589 8.31694Z" fill="#8C97AB"/>
<path d="M17.7032 8.31685H15.9846C15.762 8.30918 15.5511 8.2179 15.3964 8.06225C15.2417 7.9066 15.1553 7.69872 15.1553 7.48239C15.1553 7.26607 15.2417 7.05819 15.3964 6.90254C15.5511 6.74689 15.762 6.65562 15.9846 6.64795H17.7032C17.9258 6.65562 18.1367 6.74689 18.2914 6.90254C18.4461 7.05819 18.5326 7.26607 18.5326 7.48239C18.5326 7.69872 18.4461 7.9066 18.2914 8.06225C18.1367 8.2179 17.9258 8.30918 17.7032 8.31685Z" fill="#8C97AB"/>
<path d="M6.01568 11.6546H4.29707C4.18166 11.6586 4.06661 11.6399 3.95878 11.5998C3.85095 11.5596 3.75255 11.4988 3.66946 11.4209C3.58636 11.3431 3.52027 11.2497 3.47514 11.1465C3.43 11.0433 3.40674 10.9323 3.40674 10.8202C3.40674 10.708 3.43 10.597 3.47514 10.4938C3.52027 10.3906 3.58636 10.2973 3.66946 10.2194C3.75255 10.1415 3.85095 10.0807 3.95878 10.0406C4.06661 10.0004 4.18166 9.98178 4.29707 9.98575H6.01568C6.23831 9.99343 6.44918 10.0847 6.60388 10.2403C6.75858 10.396 6.84503 10.6039 6.84503 10.8202C6.84503 11.0365 6.75858 11.2444 6.60388 11.4C6.44918 11.5556 6.23831 11.6469 6.01568 11.6546Z" fill="#8C97AB"/>
<path d="M11.8589 11.6546H10.1403C10.0249 11.6586 9.90988 11.6399 9.80205 11.5998C9.69422 11.5596 9.59583 11.4988 9.51273 11.4209C9.42964 11.3431 9.36354 11.2497 9.31841 11.1465C9.27327 11.0433 9.25 10.9323 9.25 10.8202C9.25 10.708 9.27327 10.597 9.31841 10.4938C9.36354 10.3906 9.42964 10.2973 9.51273 10.2194C9.59583 10.1415 9.69422 10.0807 9.80205 10.0406C9.90988 10.0004 10.0249 9.98178 10.1403 9.98575H11.8589C12.0816 9.99343 12.2924 10.0847 12.4471 10.2403C12.6018 10.396 12.6883 10.6039 12.6883 10.8202C12.6883 11.0365 12.6018 11.2444 12.4471 11.4C12.2924 11.5556 12.0816 11.6469 11.8589 11.6546Z" fill="#8C97AB"/>
<path d="M17.7032 11.6547H15.9846C15.762 11.647 15.5511 11.5557 15.3964 11.4001C15.2417 11.2444 15.1553 11.0366 15.1553 10.8202C15.1553 10.6039 15.2417 10.3961 15.3964 10.2404C15.5511 10.0848 15.762 9.99351 15.9846 9.98584H17.7032C17.9258 9.99351 18.1367 10.0848 18.2914 10.2404C18.4461 10.3961 18.5326 10.6039 18.5326 10.8202C18.5326 11.0366 18.4461 11.2444 18.2914 11.4001C18.1367 11.5557 17.9258 11.647 17.7032 11.6547Z" fill="#8C97AB"/>
<path d="M6.01572 14.9935H4.29712C4.07449 14.9859 3.86363 14.8946 3.70893 14.7389C3.55423 14.5833 3.46777 14.3754 3.46777 14.1591C3.46777 13.9428 3.55423 13.7349 3.70893 13.5793C3.86363 13.4236 4.07449 13.3324 4.29712 13.3247H6.01572C6.23834 13.3324 6.44921 13.4236 6.60391 13.5793C6.75861 13.7349 6.84506 13.9428 6.84506 14.1591C6.84506 14.3754 6.75861 14.5833 6.60391 14.7389C6.44921 14.8946 6.23834 14.9859 6.01572 14.9935Z" fill="#8C97AB"/>
<path d="M11.8589 14.9934H10.1403C10.0249 14.9974 9.90988 14.9788 9.80205 14.9386C9.69422 14.8985 9.59583 14.8377 9.51273 14.7598C9.42964 14.6819 9.36354 14.5886 9.31841 14.4854C9.27327 14.3822 9.25 14.2712 9.25 14.159C9.25 14.0469 9.27327 13.9359 9.31841 13.8327C9.36354 13.7295 9.42964 13.6361 9.51273 13.5583C9.59583 13.4804 9.69422 13.4196 9.80205 13.3794C9.90988 13.3393 10.0249 13.3206 10.1403 13.3246H11.8589C12.0816 13.3323 12.2924 13.4236 12.4471 13.5792C12.6018 13.7348 12.6883 13.9427 12.6883 14.159C12.6883 14.3754 12.6018 14.5832 12.4471 14.7389C12.2924 14.8945 12.0816 14.9858 11.8589 14.9934Z" fill="#8C97AB"/>
</svg>
