<svg width="142" height="50" viewBox="0 0 142 50" fill="none" xmlns="http://www.w3.org/2000/svg">
<path d="M66.0412 37.0694H62.1971L62.2318 24.6903L62.3354 21.8971L60.4995 24.0006L54.1624 30.6903L47.3742 24.4489L45.4004 22.1041L45.4695 25.3796V37.0694H41.5215V12.3108L54.1624 25.0695L66.0412 12.3108V37.0694Z" fill="#ED72A9"/>
<path d="M86.959 31.3109C85.2966 35.3452 81.9025 37.3452 78.3708 37.3452C73.4525 37.3452 69.5049 33.3109 69.5049 28.4489C69.5049 23.5523 73.4525 19.5179 78.3708 19.5179C83.2537 19.5179 87.2019 23.5523 87.2019 28.4489C87.2019 28.7583 87.2019 29.1365 87.1672 29.4144H72.8984C73.3472 32.0693 75.5655 34.1384 78.3708 34.1384C80.5178 34.1384 82.3878 33.1039 83.2884 31.3109H86.959ZM73.0025 26.8282H83.7737C83.6702 26.5531 83.4972 26.2781 83.3937 26.0006C82.4931 24.1041 80.6231 22.6903 78.3725 22.6903C76.0172 22.6903 74.1125 24.1728 73.2466 26.1728C73.1408 26.4142 73.0367 26.6212 73.0025 26.8282Z" fill="#ED72A9"/>
<path d="M97.6603 20.035C99.5303 20.035 101.297 20.6195 102.682 21.5866C102.993 21.8273 103.306 22.1367 103.617 22.3798V12.9317H107.117V36.9646H103.619V34.9319C103.309 35.2361 102.972 35.513 102.614 35.7595C101.156 36.7528 99.4286 37.282 97.6615 37.2767C92.9168 37.2767 89.0386 33.4146 89.0386 28.6214C89.0368 23.8627 92.9156 20.035 97.6603 20.035ZM97.6603 34.1727C100.743 34.1727 103.617 31.7244 103.617 28.6212C103.617 25.5866 100.743 23.1383 97.6603 23.1383C94.5774 23.1383 92.2574 25.5866 92.2574 28.6212C92.2574 31.7244 94.578 34.1727 97.6603 34.1727Z" fill="#ED72A9"/>
<path d="M136.172 25.0348C136.172 32.035 131.219 37.621 123.914 37.621C117.022 37.621 111.411 32.035 111.411 25.0348C111.411 18.1041 117.022 12.3799 123.914 12.3799C129.212 12.3799 132.052 14.5868 134.303 16.7935L131.289 19.1383C129.765 17.7246 127.479 16.1385 123.912 16.1385C119.168 16.1385 115.358 20.1041 115.358 25.0348C115.358 30.0006 119.168 34.0005 123.912 34.0005C127.653 34.0005 130.908 31.7592 131.947 28.0006H125.886V24.6212H136.172V25.0348Z" fill="#ED72A9"/>
<path d="M34.3886 18.931C34.1969 21.9191 33.0613 24.7703 31.1442 27.077C29.227 29.3837 26.6264 31.0279 23.7142 31.7744C23.528 31.8233 23.3635 31.9323 23.2464 32.0844C23.1293 32.2365 23.0662 32.423 23.067 32.6146V35.2486C23.0669 35.3623 23.0893 35.4748 23.1328 35.5798C23.1764 35.6848 23.2403 35.7802 23.3209 35.8606C23.4016 35.941 23.4973 36.0048 23.6027 36.0484C23.7081 36.0919 23.821 36.1143 23.9352 36.1144H26.4135C26.6439 36.1143 26.8649 36.2053 27.0279 36.3673C27.191 36.5294 27.2828 36.7493 27.283 36.9787V41.0616C27.2828 41.2909 27.191 41.5109 27.0279 41.673C26.8649 41.835 26.6439 41.926 26.4135 41.9259H23.9355C23.8215 41.9258 23.7085 41.9482 23.603 41.9916C23.4976 42.035 23.4019 42.0987 23.3212 42.179C23.2406 42.2593 23.1766 42.3546 23.133 42.4596C23.0893 42.5646 23.0669 42.677 23.067 42.7906V45.2592C23.0666 45.4884 22.9749 45.708 22.8122 45.8701C22.6494 46.0321 22.4288 46.1233 22.1986 46.1236H18.0986C17.9846 46.1237 17.8716 46.1014 17.7661 46.058C17.6607 46.0146 17.5649 45.951 17.4841 45.8707C17.4033 45.7905 17.3393 45.6952 17.2955 45.5902C17.2518 45.4853 17.2292 45.3728 17.2292 45.2592V42.7906C17.2292 42.6771 17.2068 42.5647 17.1632 42.4597C17.1196 42.3549 17.0556 42.2595 16.975 42.1792C16.8944 42.0989 16.7987 42.0352 16.6933 41.9918C16.588 41.9483 16.475 41.9259 16.361 41.9259H13.8816C13.7676 41.926 13.6546 41.9038 13.5491 41.8603C13.4437 41.817 13.3479 41.7533 13.2671 41.673C13.1863 41.5928 13.1223 41.4975 13.0786 41.3925C13.0348 41.2877 13.0122 41.1751 13.0122 41.0616V36.9787C13.0122 36.8652 13.0348 36.7526 13.0786 36.6478C13.1223 36.5428 13.1863 36.4475 13.2671 36.3673C13.3479 36.287 13.4437 36.2233 13.5491 36.18C13.6546 36.1365 13.7676 36.1143 13.8816 36.1144H16.361C16.4751 36.1143 16.588 36.0918 16.6935 36.0482C16.7988 36.0047 16.8946 35.9409 16.9752 35.8605C17.0558 35.7801 17.1197 35.6847 17.1633 35.5797C17.2069 35.4747 17.2292 35.3622 17.2292 35.2486V32.6112C17.2298 32.4482 17.184 32.2884 17.0969 32.1504C17.0098 32.0125 16.8852 31.9019 16.7374 31.8318C16.6888 31.8085 16.638 31.7901 16.5858 31.7768C9.37911 29.9318 4.37339 22.6233 6.28987 14.5491C7.51646 9.38285 11.6278 5.3478 16.8286 4.18054C19.6426 3.54963 22.3602 3.74733 24.7833 4.57456C26.5438 5.17716 28.1688 6.11704 29.5666 7.34125C29.6555 7.41951 29.7273 7.51504 29.7776 7.62198C29.8279 7.72897 29.8557 7.84501 29.8592 7.9631C29.8627 8.08114 29.8418 8.19865 29.7979 8.3084C29.754 8.4181 29.6879 8.51769 29.6039 8.601L26.3645 11.8274C26.214 11.9791 26.0123 12.0697 25.7986 12.0816C25.5848 12.0936 25.3742 12.026 25.2076 11.892C24.8732 11.6179 24.5169 11.3712 24.1423 11.1545C22.9438 10.4609 21.5831 10.0934 20.1968 10.0887C20.1812 10.0887 20.1643 10.0887 20.1488 10.0887C14.969 10.0887 10.9437 15.0143 12.538 20.4153C13.0746 22.2281 14.2658 23.7793 15.8824 24.7697C16.4649 25.1288 17.0934 25.4079 17.7509 25.5993C18.5944 25.8475 19.4715 25.9635 20.3508 25.9432C22.0397 25.9033 23.6715 25.3268 25.008 24.298C25.0139 24.2932 25.0202 24.2898 25.026 24.285C25.6707 23.7881 25.3064 22.756 24.4897 22.756H23.065C22.8348 22.7559 22.6139 22.6648 22.4511 22.5028C22.2883 22.3407 22.1967 22.1209 22.1965 21.8917V18.8794C22.197 18.6504 22.2886 18.4308 22.4515 18.269C22.6143 18.1072 22.8349 18.0162 23.065 18.0161H33.5205C33.6389 18.0159 33.756 18.0398 33.8648 18.0864C33.9736 18.133 34.0716 18.2012 34.153 18.2869C34.2343 18.3726 34.2971 18.4739 34.3376 18.5847C34.3782 18.6955 34.3955 18.8133 34.3886 18.931Z" fill="#E72887"/>
<path d="M34.3884 18.931C34.1967 21.919 33.0612 24.7703 31.144 27.077C29.2268 29.3837 26.6262 31.0278 23.714 31.7743C23.5279 31.8232 23.3633 31.9323 23.2462 32.0844C23.1291 32.2365 23.066 32.423 23.0669 32.6146V35.2486C23.0667 35.3622 23.0891 35.4748 23.1327 35.5798C23.1762 35.6848 23.2402 35.7802 23.3207 35.8606C23.4014 35.941 23.4972 36.0048 23.6025 36.0483C23.7079 36.0919 23.8209 36.1143 23.935 36.1144H26.4133C26.6437 36.1143 26.8647 36.2053 27.0278 36.3673C27.1908 36.5294 27.2826 36.7493 27.2829 36.9787V41.0616C27.2826 41.2909 27.1908 41.5109 27.0278 41.673C26.8647 41.835 26.6437 41.926 26.4133 41.9259H23.9353C23.8213 41.9258 23.7083 41.9481 23.6029 41.9915C23.4975 42.035 23.4017 42.0987 23.321 42.1789C23.2404 42.2593 23.1765 42.3546 23.1328 42.4596C23.0892 42.5646 23.0668 42.677 23.0669 42.7906V43.6158C20.4296 40.7034 18.4402 37.2691 17.229 33.5378V32.6094C17.2297 32.4465 17.1838 32.2867 17.0968 32.1487C17.0097 32.0107 16.885 31.9002 16.7373 31.83C16.1667 29.5858 15.8791 27.2797 15.8809 24.9647C15.8809 24.8976 15.8809 24.8319 15.8809 24.7649C16.4633 25.124 17.0919 25.4031 17.7494 25.5945C18.5929 25.8427 19.47 25.9587 20.3493 25.9384C22.0382 25.8985 23.67 25.322 25.0065 24.2932C25.0124 24.2884 25.0186 24.2849 25.0245 24.2801C25.6692 23.7833 25.3049 22.7512 24.4882 22.7512H23.0648C22.8346 22.7511 22.6138 22.66 22.4509 22.4979C22.2881 22.3358 22.1965 22.116 22.1963 21.8868V18.8794C22.1968 18.6503 22.2885 18.4308 22.4513 18.269C22.6141 18.1072 22.8347 18.0162 23.0648 18.0161H33.5203C33.6387 18.0159 33.7559 18.0398 33.8646 18.0864C33.9735 18.1329 34.0715 18.2012 34.1528 18.2869C34.2341 18.3725 34.297 18.4739 34.3374 18.5847C34.378 18.6955 34.3953 18.8133 34.3884 18.931Z" fill="#ED72A9"/>
</svg>
