<svg width="24" height="24" viewBox="0 0 24 24" fill="none" xmlns="http://www.w3.org/2000/svg">
<path opacity="0.5" d="M17.3121 14.9687C17.3121 14.3463 17.498 13.7381 17.8459 13.222C18.1938 12.7059 18.6879 12.3055 19.2648 12.072C18.7905 11.8801 18.2763 11.8077 17.7674 11.861C17.2585 11.9143 16.7705 12.0918 16.3462 12.3778C15.922 12.6639 15.5744 13.0497 15.3342 13.5015C15.0939 13.9532 14.9683 14.4571 14.9683 14.9687C14.9683 15.4804 15.0939 15.9842 15.3342 16.436C15.5744 16.8878 15.922 17.2736 16.3462 17.5596C16.7705 17.8457 17.2585 18.0231 17.7674 18.0765C18.2763 18.1298 18.7905 18.0573 19.2648 17.8654C18.6879 17.632 18.1938 17.2315 17.8459 16.7155C17.498 16.1994 17.3121 15.5911 17.3121 14.9687Z" fill="#8C97AB"/>
<path d="M7.46884 12.6247C8.91902 12.6229 10.3092 12.0459 11.3344 11.0201C12.3595 9.9944 12.9357 8.60382 12.9366 7.15365V4.34467C12.936 3.72335 12.689 3.12762 12.2498 2.68817C11.8105 2.24872 11.2149 2.00144 10.5936 2.00057C10.4885 1.99663 10.3838 2.01392 10.2856 2.05141C10.1873 2.08889 10.0977 2.1458 10.022 2.21873C9.94628 2.29166 9.88605 2.37911 9.84492 2.47585C9.80378 2.57259 9.78258 2.67663 9.78258 2.78175C9.78258 2.88688 9.80378 2.99092 9.84492 3.08766C9.88605 3.1844 9.94628 3.27185 10.022 3.34478C10.0977 3.4177 10.1873 3.47461 10.2856 3.5121C10.3838 3.54958 10.4885 3.56688 10.5936 3.56294C10.8009 3.56294 10.9997 3.6453 11.1464 3.7919C11.293 3.93851 11.3753 4.13734 11.3753 4.34467V7.15365C11.3582 8.17823 10.9391 9.15505 10.2085 9.87354C9.47782 10.592 8.49412 10.9947 7.46939 10.9947C6.44467 10.9947 5.46097 10.592 4.73033 9.87354C3.9997 9.15505 3.58063 8.17823 3.56347 7.15365V4.34467C3.56347 4.13734 3.64583 3.93851 3.79243 3.7919C3.93903 3.6453 4.13787 3.56294 4.3452 3.56294C4.45025 3.5668 4.555 3.54944 4.65319 3.51188C4.75137 3.47433 4.84098 3.41735 4.91664 3.34437C4.9923 3.27139 5.05246 3.1839 5.09353 3.08713C5.1346 2.99036 5.15572 2.88631 5.15565 2.78118C5.15558 2.67606 5.1343 2.57203 5.0931 2.47532C5.05189 2.37861 4.99161 2.29121 4.91585 2.21833C4.84008 2.14546 4.7504 2.08861 4.65216 2.05119C4.55392 2.01378 4.44915 1.99656 4.3441 2.00057C3.72259 2.00115 3.12669 2.2483 2.68721 2.68778C2.24773 3.12726 2.00058 3.72316 2 4.34467L2 7.15365C2.00087 8.60401 2.57726 9.99475 3.60262 11.0205C4.62797 12.0463 6.01848 12.6232 7.46884 12.6247Z" fill="#8C97AB"/>
<path d="M18.0899 11.0623C17.1898 11.0635 16.3177 11.3749 15.6205 11.9441C14.9233 12.5133 14.4436 13.3054 14.2623 14.187H13.7141C13.0926 14.1876 12.4967 14.4347 12.0572 14.8742C11.6178 15.3137 11.3706 15.9096 11.37 16.5311V18.8752C11.37 19.2896 11.2054 19.687 10.9124 19.98C10.6194 20.273 10.222 20.4376 9.80766 20.4376C9.39329 20.4376 8.9959 20.273 8.70289 19.98C8.40989 19.687 8.24529 19.2896 8.24529 18.8752V14.9687C8.24922 14.8637 8.23193 14.7589 8.19444 14.6607C8.15696 14.5625 8.10006 14.4729 8.02713 14.3971C7.9542 14.3214 7.86675 14.2612 7.77001 14.2201C7.67327 14.1789 7.56923 14.1577 7.46411 14.1577C7.35899 14.1577 7.25494 14.1789 7.1582 14.2201C7.06146 14.2612 6.97401 14.3214 6.90109 14.3971C6.82816 14.4729 6.77125 14.5625 6.73376 14.6607C6.69628 14.7589 6.67899 14.8637 6.68292 14.9687V18.8752C6.68292 19.7039 7.01213 20.4987 7.59813 21.0847C8.18413 21.6707 8.97893 21.9999 9.80766 21.9999C10.6364 21.9999 11.4312 21.6707 12.0172 21.0847C12.6032 20.4987 12.9324 19.7039 12.9324 18.8752V16.5311C12.9324 16.3238 13.0148 16.1249 13.1614 15.9783C13.308 15.8317 13.5068 15.7494 13.7141 15.7494H14.2623C14.41 16.4736 14.7602 17.1412 15.2722 17.6744C15.7842 18.2076 16.4369 18.5846 17.1546 18.7616C17.8723 18.9386 18.6255 18.9083 19.3267 18.6743C20.0278 18.4403 20.6482 18.0121 21.1158 17.4396C21.5833 16.867 21.8788 16.1736 21.968 15.4398C22.0571 14.706 21.9362 13.962 21.6193 13.2941C21.3025 12.6263 20.8026 12.0621 20.1779 11.667C19.5531 11.2719 18.8291 11.0622 18.0899 11.0623ZM18.0899 17.3117C17.6262 17.3117 17.173 17.1743 16.7875 16.9167C16.4021 16.6591 16.1016 16.293 15.9242 15.8647C15.7468 15.4363 15.7004 14.965 15.7908 14.5103C15.8813 14.0556 16.1045 13.6379 16.4323 13.3101C16.7602 12.9823 17.1778 12.759 17.6326 12.6686C18.0873 12.5781 18.5586 12.6245 18.9869 12.802C19.4152 12.9794 19.7814 13.2798 20.0389 13.6653C20.2965 14.0508 20.434 14.504 20.434 14.9676C20.4334 15.5891 20.1862 16.185 19.7468 16.6245C19.3073 17.064 18.7114 17.3112 18.0899 17.3117Z" fill="#8C97AB"/>
<path d="M19.2102 14.4272C19.8157 14.4272 20.3066 14.1818 20.3066 13.879C20.3066 13.5762 19.8157 13.3308 19.2102 13.3308C18.6046 13.3308 18.1138 13.5762 18.1138 13.879C18.1138 14.1818 18.6046 14.4272 19.2102 14.4272Z" fill="#8C97AB"/>
</svg>
