<svg width="22" height="22" viewBox="0 0 22 22" fill="none" xmlns="http://www.w3.org/2000/svg">
<path opacity="0.5" d="M3.43682 10.9987C3.40616 8.52409 4.29397 6.12598 5.92865 4.26792C7.56333 2.40986 9.8288 1.22378 12.2871 0.938969C11.8595 0.886541 11.429 0.859962 10.9982 0.859375C8.30907 0.859375 5.7301 1.92762 3.82862 3.82911C1.92713 5.7306 0.858887 8.30958 0.858887 10.9987C0.858887 13.6878 1.92713 16.2668 3.82862 18.1683C5.7301 20.0698 8.30907 21.138 10.9982 21.138C11.429 21.1382 11.8594 21.1123 12.2871 21.0606C9.82842 20.7758 7.56264 19.5894 5.9279 17.7309C4.29317 15.8723 3.4056 13.4737 3.43682 10.9987Z" fill="#8C97AB"/>
<path d="M10.9989 21.9994C9.55008 22.0149 8.11275 21.741 6.77122 21.1936C5.42969 20.6463 4.21096 19.8365 3.18654 18.8119C2.16212 17.7873 1.35263 16.5684 0.805547 15.2267C0.258467 13.8851 -0.0151825 12.4477 0.000649746 10.9989C-0.0148861 9.55027 0.258983 8.11312 0.806195 6.77174C1.35341 5.43035 2.16295 4.21173 3.18734 3.18734C4.21173 2.16295 5.43035 1.35341 6.77174 0.806195C8.11312 0.258983 9.55027 -0.0148861 10.9989 0.000649746C12.4477 -0.0151825 13.8851 0.258467 15.2267 0.805547C16.5684 1.35263 17.7873 2.16212 18.8119 3.18654C19.8365 4.21096 20.6463 5.42969 21.1936 6.77122C21.741 8.11275 22.0149 9.55008 21.9994 10.9989C22.0152 12.4479 21.7415 13.8855 21.1943 15.2273C20.647 16.569 19.8373 17.788 18.8127 18.8127C17.788 19.8373 16.569 20.647 15.2273 21.1943C13.8855 21.7415 12.4479 22.0152 10.9989 21.9994ZM10.9989 1.72075C9.7768 1.70773 8.56441 1.93882 7.43279 2.40047C6.30118 2.86212 5.27311 3.54503 4.40886 4.40918C3.54461 5.27332 2.86157 6.30131 2.39979 7.43288C1.93801 8.56444 1.70677 9.7768 1.71964 10.9989C1.70647 12.2213 1.93752 13.434 2.39924 14.5659C2.86096 15.6977 3.54405 16.7261 4.40845 17.5904C5.27285 18.4548 6.30115 19.1379 7.43304 19.5997C8.56493 20.0614 9.77763 20.2924 11 20.2793C12.2224 20.2924 13.4351 20.0614 14.567 19.5997C15.6989 19.1379 16.7272 18.4548 17.5916 17.5904C18.456 16.7261 19.139 15.6977 19.6008 14.5659C20.0625 13.434 20.2935 12.2213 20.2804 10.9989C20.2934 9.77652 20.0622 8.56385 19.6003 7.43202C19.1385 6.30018 18.4553 5.27196 17.5908 4.40766C16.7263 3.54337 15.6979 2.8604 14.5659 2.39882C13.434 1.93723 12.2213 1.70633 10.9989 1.71964V1.72075Z" fill="#8C97AB"/>
<path d="M10.9999 11.8589C10.1503 11.8589 9.31975 11.6069 8.6133 11.1349C7.90686 10.6629 7.35624 9.99198 7.0311 9.20703C6.70596 8.42208 6.62089 7.55834 6.78665 6.72504C6.9524 5.89174 7.36155 5.12631 7.96233 4.52554C8.56312 3.92476 9.32855 3.51563 10.1619 3.34988C10.9952 3.18412 11.8589 3.2692 12.6439 3.59433C13.4288 3.91947 14.0998 4.47007 14.5718 5.17651C15.0438 5.88294 15.2958 6.71349 15.2958 7.56311C15.2943 8.70197 14.8412 9.79376 14.0359 10.5991C13.2306 11.4044 12.1388 11.8574 10.9999 11.8589ZM10.9999 4.9852C10.4901 4.9852 9.99166 5.13639 9.56772 5.41966C9.14377 5.70292 8.81335 6.10554 8.61823 6.57659C8.42311 7.04764 8.37206 7.56597 8.47153 8.06603C8.571 8.5661 8.81652 9.02543 9.17705 9.38596C9.53758 9.74649 9.99694 9.99201 10.497 10.0915C10.9971 10.191 11.5154 10.1399 11.9865 9.94478C12.4575 9.74967 12.8602 9.41925 13.1434 8.99531C13.4267 8.57138 13.5779 8.07297 13.5779 7.56311C13.577 6.87968 13.3051 6.22449 12.8218 5.74123C12.3386 5.25796 11.6834 4.98608 10.9999 4.9852Z" fill="#8C97AB"/>
<path d="M5.89682 16.733C5.79217 16.6906 5.69691 16.628 5.61648 16.5488C5.53604 16.4695 5.47202 16.3752 5.42808 16.2712C5.38413 16.1672 5.36112 16.0555 5.36037 15.9426C5.35962 15.8297 5.38114 15.7178 5.42369 15.6132C5.87397 14.5036 6.64505 13.5537 7.63827 12.8849C8.63149 12.216 9.80168 11.8588 10.9991 11.8588C12.1965 11.8588 13.3667 12.216 14.3599 12.8849C15.3531 13.5537 16.1242 14.5036 16.5745 15.6132C16.6602 15.8244 16.6586 16.0611 16.5698 16.2711C16.4811 16.4811 16.3126 16.6472 16.1014 16.733C15.8901 16.8188 15.6535 16.8171 15.4434 16.7283C15.2334 16.6396 15.0673 16.4711 14.9815 16.2599C14.66 15.467 14.1092 14.7882 13.3997 14.3103C12.6901 13.8324 11.8541 13.577 10.9985 13.577C10.143 13.577 9.30697 13.8324 8.59741 14.3103C7.88785 14.7882 7.33706 15.467 7.01555 16.2599C6.97316 16.3645 6.91056 16.4598 6.83131 16.5402C6.75207 16.6207 6.65775 16.6847 6.55374 16.7286C6.44973 16.7726 6.33808 16.7956 6.22517 16.7963C6.11226 16.7971 6.00031 16.7756 5.89572 16.733H5.89682Z" fill="#8C97AB"/>
</svg>
