<svg width="20" height="20" viewBox="0 0 20 20" fill="none" xmlns="http://www.w3.org/2000/svg">
<path opacity="0.5" d="M4.34595 19.2032C3.37286 19.1177 2.46713 18.6706 1.80737 17.9501C1.1476 17.2296 0.78167 16.288 0.781738 15.3111V8.73743C0.781632 8.13623 0.920253 7.54311 1.18681 7.00425C1.45337 6.46539 1.84068 5.99532 2.31858 5.63065L7.63121 1.57845C8.31175 1.05951 9.14385 0.778442 9.99963 0.778442C10.8554 0.778442 11.6875 1.05951 12.3681 1.57845L12.727 1.85218C11.7433 1.75431 10.7591 2.0335 9.97332 2.63335L3.65753 7.45303C3.49215 7.57916 3.35813 7.74179 3.26593 7.92824C3.17372 8.11469 3.12582 8.31992 3.12595 8.52793V16.367C3.12529 16.8982 3.23328 17.4239 3.44326 17.9119C3.65325 18.3998 3.96079 18.8396 4.347 19.2043L4.34595 19.2032Z" fill="#001444"/>
<path d="M15.3126 20H4.68737C3.44445 19.9986 2.25285 19.5041 1.37407 18.625C0.495285 17.7459 0.00111445 16.554 0 15.3109L0 8.73723C0.00272546 8.0168 0.170463 7.30658 0.490335 6.66108C0.810208 6.01558 1.27371 5.45197 1.84526 5.0135L7.15789 0.957096C7.97531 0.336159 8.97354 0 10 0C11.0265 0 12.0247 0.336159 12.8421 0.957096L14.5263 2.24361V1.24661C14.5263 1.03943 14.6086 0.84074 14.7551 0.694242C14.9016 0.547744 15.1002 0.465442 15.3074 0.465442C15.5145 0.465442 15.7132 0.547744 15.8597 0.694242C16.0061 0.84074 16.0884 1.03943 16.0884 1.24661V3.82174C16.0884 3.96736 16.0477 4.11007 15.971 4.23379C15.8942 4.3575 15.7843 4.45729 15.6538 4.52188C15.5234 4.58647 15.3774 4.61331 15.2325 4.59935C15.0876 4.58539 14.9494 4.5312 14.8337 4.44289L11.8947 2.19939C11.3498 1.78543 10.6843 1.56133 10 1.56133C9.31569 1.56133 8.65021 1.78543 8.10526 2.19939L2.79263 6.25159C2.41144 6.54418 2.10241 6.9203 1.88927 7.35102C1.67613 7.78173 1.56457 8.2556 1.56316 8.73618V15.3098C1.56371 16.1386 1.89298 16.9332 2.47871 17.5194C3.06443 18.1056 3.85875 18.4355 4.68737 18.4366H15.3126C16.1412 18.4358 16.9357 18.1062 17.5216 17.5202C18.1075 16.9342 18.4371 16.1396 18.4379 15.3109V8.73723C18.4393 8.25612 18.3303 7.78111 18.1193 7.34874C17.9084 6.91636 17.6011 6.53814 17.2211 6.24317C17.0563 6.11752 16.9483 5.93157 16.9206 5.72624C16.893 5.5209 16.9481 5.313 17.0737 5.14826C17.1993 4.98352 17.3852 4.87544 17.5905 4.8478C17.7958 4.82016 18.0037 4.87522 18.1684 5.00087C18.7391 5.44209 19.2009 6.00836 19.5185 6.6561C19.836 7.30385 20.0007 8.01582 20 8.73723V15.3109C19.9989 16.554 19.5047 17.7459 18.6259 18.625C17.7472 19.5041 16.5556 19.9986 15.3126 20Z" fill="#001444"/>
<path d="M9.41413 9.99749C9.41413 10.1907 9.35685 10.3796 9.24951 10.5403C9.14217 10.7009 8.98961 10.8262 8.81112 10.9001C8.63262 10.9741 8.43621 10.9934 8.24672 10.9557C8.05723 10.918 7.88317 10.825 7.74655 10.6883C7.60994 10.5517 7.51691 10.3776 7.47922 10.1881C7.44153 9.99858 7.46087 9.80213 7.53481 9.62361C7.60874 9.44509 7.73395 9.2925 7.8946 9.18515C8.05524 9.0778 8.24409 9.02051 8.43729 9.02051C8.69637 9.02051 8.94483 9.12344 9.12802 9.30666C9.31121 9.48988 9.41413 9.73838 9.41413 9.99749ZM11.5626 9.02051C11.3693 9.02051 11.1805 9.0778 11.0199 9.18515C10.8592 9.2925 10.734 9.44509 10.6601 9.62361C10.5861 9.80213 10.5668 9.99858 10.6045 10.1881C10.6422 10.3776 10.7352 10.5517 10.8718 10.6883C11.0084 10.825 11.1825 10.918 11.372 10.9557C11.5615 10.9934 11.7579 10.9741 11.9364 10.9001C12.1149 10.8262 12.2674 10.7009 12.3748 10.5403C12.4821 10.3796 12.5394 10.1907 12.5394 9.99749C12.5394 9.73911 12.4371 9.49124 12.2548 9.30814C12.0725 9.12504 11.8251 9.02162 11.5668 9.02051H11.5626ZM8.43729 12.1462C8.24409 12.1462 8.05524 12.2035 7.8946 12.3109C7.73395 12.4183 7.60874 12.5708 7.53481 12.7494C7.46087 12.9279 7.44153 13.1243 7.47922 13.3138C7.51691 13.5033 7.60994 13.6774 7.74655 13.8141C7.88317 13.9507 8.05723 14.0437 8.24672 14.0814C8.43621 14.1191 8.63262 14.0998 8.81112 14.0258C8.98961 13.9519 9.14217 13.8267 9.24951 13.666C9.35685 13.5054 9.41413 13.3165 9.41413 13.1232C9.41413 12.8643 9.31135 12.616 9.12839 12.4328C8.94542 12.2496 8.69723 12.1465 8.43834 12.1462H8.43729ZM11.5626 12.1462C11.3693 12.1462 11.1805 12.2035 11.0199 12.3109C10.8592 12.4183 10.734 12.5708 10.6601 12.7494C10.5861 12.9279 10.5668 13.1243 10.6045 13.3138C10.6422 13.5033 10.7352 13.6774 10.8718 13.8141C11.0084 13.9507 11.1825 14.0437 11.372 14.0814C11.5615 14.1191 11.7579 14.0998 11.9364 14.0258C12.1149 13.9519 12.2674 13.8267 12.3748 13.666C12.4821 13.5054 12.5394 13.3165 12.5394 13.1232C12.5394 12.8648 12.4371 12.617 12.2548 12.4339C12.0725 12.2508 11.8251 12.1474 11.5668 12.1462H11.5626Z" fill="#001444"/>
</svg>
