<svg width="24" height="24" viewBox="0 0 24 24" fill="none" xmlns="http://www.w3.org/2000/svg">
<path opacity="0.5" d="M5.24235 12.0904C5.22286 9.84383 6.02316 7.66723 7.49332 5.96839C8.96349 4.26955 11.0026 3.16503 13.2287 2.86178C12.8216 2.80844 12.4114 2.7817 12.0007 2.78174C10.7834 2.78488 9.5787 3.02846 8.45578 3.49849C7.33287 3.96852 6.31386 4.65573 5.45727 5.52067C4.60069 6.38561 3.92339 7.41124 3.46429 8.53867C3.00518 9.66609 2.7733 10.8731 2.78197 12.0904V21.2181L2.93438 21.0657C3.56262 20.4433 4.36593 20.0275 5.23687 19.8739L5.24235 12.0904Z" fill="#001444"/>
<path d="M2.78089 21.9999C2.57375 21.9996 2.37519 21.9171 2.22882 21.7706C2.08245 21.624 2.00024 21.4253 2.00024 21.2182V12.0937C1.99114 10.7736 2.24288 9.46466 2.74101 8.24208C3.23914 7.0195 3.97385 5.90735 4.90296 4.96948C5.83206 4.03161 6.93727 3.2865 8.15512 2.77691C9.37297 2.26733 10.6795 2.00332 11.9996 2.00003C13.322 1.99702 14.6317 2.2569 15.8527 2.76454C17.0737 3.27218 18.1816 4.01746 19.112 4.95706C20.0424 5.89666 20.7768 7.01183 21.2724 8.23775C21.768 9.46367 22.015 10.7759 21.999 12.0981C21.9707 14.7386 20.9001 17.261 19.0203 19.1156C17.1406 20.9703 14.6041 22.007 11.9635 21.9999H11.9536C10.4014 22.0059 8.86955 21.6461 7.48237 20.9496C6.83002 20.6258 6.0922 20.5161 5.37389 20.636C4.65557 20.7559 3.99337 21.0993 3.48151 21.6173L3.32911 21.7697C3.18372 21.9153 2.98669 21.9977 2.78089 21.9988V21.9999ZM5.96053 19.0253C6.73529 19.0252 7.49935 19.2062 8.19175 19.5538C9.36079 20.1399 10.6514 20.4426 11.9591 20.4375H11.9667C14.1918 20.4352 16.3267 19.5584 17.9112 17.9963C19.4957 16.4342 20.4027 14.3119 20.4366 12.0871C20.4561 10.4075 19.9732 8.76031 19.0498 7.35708C18.1264 5.95385 16.8048 4.85859 15.2545 4.21189C13.7042 3.56518 11.996 3.39654 10.3491 3.72762C8.70231 4.05869 7.19199 4.87437 6.01206 6.06996C5.22362 6.85925 4.6008 7.79809 4.18018 8.83139C3.75956 9.86468 3.5496 10.9716 3.56264 12.0871C3.56264 12.0871 3.56264 12.0871 3.56264 12.0948V19.636C4.29777 19.2383 5.12035 19.03 5.95614 19.0297L5.96053 19.0253Z" fill="#001444"/>
<path d="M9.6555 12.0006C9.6555 12.1938 9.59821 12.3827 9.49086 12.5433C9.38352 12.704 9.23094 12.8292 9.05243 12.9031C8.87393 12.9771 8.6775 12.9964 8.48799 12.9587C8.29849 12.921 8.12442 12.828 7.9878 12.6914C7.85117 12.5548 7.75813 12.3807 7.72043 12.1912C7.68274 12.0017 7.70209 11.8053 7.77603 11.6268C7.84997 11.4482 7.97519 11.2957 8.13584 11.1883C8.29649 11.081 8.48537 11.0237 8.67858 11.0237C8.93768 11.0237 9.18616 11.1266 9.36937 11.3098C9.55258 11.493 9.6555 11.7415 9.6555 12.0006ZM12.038 11.0237C11.8448 11.0237 11.6559 11.081 11.4953 11.1883C11.3346 11.2957 11.2094 11.4482 11.1355 11.6268C11.0615 11.8053 11.0422 12.0017 11.0799 12.1912C11.1176 12.3807 11.2106 12.5548 11.3473 12.6914C11.4839 12.828 11.6579 12.921 11.8475 12.9587C12.037 12.9964 12.2334 12.9771 12.4119 12.9031C12.5904 12.8292 12.743 12.704 12.8503 12.5433C12.9577 12.3827 13.0149 12.1938 13.0149 12.0006C13.0149 11.7417 12.9122 11.4934 12.7292 11.3102C12.5462 11.127 12.298 11.024 12.0391 11.0237H12.038ZM15.3975 11.0237C15.2043 11.0237 15.0154 11.081 14.8547 11.1883C14.6941 11.2957 14.5689 11.4482 14.4949 11.6268C14.421 11.8053 14.4016 12.0017 14.4393 12.1912C14.477 12.3807 14.5701 12.5548 14.7067 12.6914C14.8433 12.828 15.0174 12.921 15.2069 12.9587C15.3964 12.9964 15.5928 12.9771 15.7713 12.9031C15.9498 12.8292 16.1024 12.704 16.2098 12.5433C16.3171 12.3827 16.3744 12.1938 16.3744 12.0006C16.3744 11.7415 16.2715 11.493 16.0883 11.3098C15.905 11.1266 15.6566 11.0237 15.3975 11.0237Z" fill="#001444"/>
</svg>
